Coordinates
version=1
nRows=65
nColumns=12
inDegrees=yes

Units are S.I. units (second, meters, Newtons, ...)
Angles are in degrees

endheader
time	SC_y	SC_z	SC_x	AC_y	AC_z	AC_x	GH_y	GH_z	GH_yy	EL_x	PS_y
       0.0               -49.5           20.7          35.02          46.71         -14.21          12.43         -134.4         -19.34          76.49          138.2          14.87
   0.01499              -49.49           20.7          35.02          46.71          -14.2          12.43         -134.4         -19.33          76.49          138.2          14.88
   0.02997              -49.49           20.7          35.02          46.72          -14.2          12.43         -134.3         -19.32          76.49          138.2          14.88
   0.04496              -49.49           20.7          35.01          46.72          -14.2          12.43         -134.3         -19.31          76.49          138.1          14.88
   0.05994              -49.49          20.69          35.01          46.72          -14.2          12.42         -134.3          -19.3          76.49          138.1          14.88
   0.07493              -49.49          20.69          35.01          46.73          -14.2          12.42         -134.3         -19.29          76.49          138.1          14.88
   0.08991              -49.49          20.69          35.01          46.73          -14.2          12.42         -134.3         -19.28          76.49          138.1          14.89
    0.1049              -49.49          20.68          35.01          46.74          -14.2          12.42         -134.2         -19.27          76.49          138.1          14.89
    0.1199              -49.48          20.68           35.0          46.74          -14.2          12.42         -134.2         -19.25          76.49          138.0          14.89
    0.1349              -49.48          20.67           35.0          46.75         -14.19          12.42         -134.2         -19.24          76.49          138.0          14.89
    0.1499              -49.48          20.67           35.0          46.75         -14.19          12.42         -134.1         -19.22          76.49          138.0           14.9
    0.1648              -49.48          20.66          34.99          46.76         -14.19          12.42         -134.1         -19.21          76.49          138.0           14.9
    0.1798              -49.47          20.66          34.99          46.76         -14.19          12.42         -134.1         -19.19          76.49          137.9           14.9
    0.1948              -49.47          20.65          34.99          46.77         -14.19          12.42         -134.0         -19.17          76.49          137.9          14.91
    0.2098              -49.47          20.65          34.98          46.78         -14.18          12.42         -134.0         -19.15          76.49          137.9          14.91
    0.2248              -49.47          20.64          34.98          46.79         -14.18          12.42         -133.9         -19.12          76.49          137.8          14.92
    0.2398              -49.46          20.63          34.97          46.79         -14.18          12.42         -133.9          -19.1          76.48          137.8          14.92
    0.2547              -49.46          20.62          34.97           46.8         -14.18          12.42         -133.8         -19.07          76.48          137.7          14.93
    0.2697              -49.45          20.61          34.96          46.81         -14.17          12.42         -133.7         -19.04          76.48          137.7          14.93
    0.2847              -49.45           20.6          34.96          46.82         -14.17          12.42         -133.7         -19.01          76.48          137.6          14.94
    0.2997              -49.44          20.59          34.95          46.84         -14.17          12.41         -133.6         -18.97          76.48          137.6          14.94
    0.3147              -49.44          20.58          34.94          46.85         -14.16          12.41         -133.5         -18.93          76.48          137.5          14.95
    0.3297              -49.43          20.57          34.93          46.87         -14.16          12.41         -133.4         -18.89          76.48          137.4          14.96
    0.3447              -49.43          20.55          34.92          46.88         -14.15          12.41         -133.3         -18.84          76.48          137.4          14.97
    0.3596              -49.42          20.54          34.91           46.9         -14.15          12.41         -133.2         -18.79          76.48          137.3          14.98
    0.3746              -49.41          20.52           34.9          46.92         -14.14          12.41         -133.0         -18.72          76.47          137.2          14.99
    0.3896               -49.4           20.5          34.89          46.95         -14.13           12.4         -132.9         -18.66          76.47          137.1           15.0
    0.4046              -49.39          20.48          34.87          46.97         -14.12           12.4         -132.7         -18.58          76.47          136.9          15.02
    0.4196              -49.38          20.45          34.86           47.0         -14.11           12.4         -132.5          -18.5          76.47          136.8          15.03
    0.4346              -49.37          20.42          34.84          47.03          -14.1           12.4         -132.3          -18.4          76.46          136.6          15.05
    0.4496              -49.35          20.39          34.82          47.07         -14.09          12.39         -132.1         -18.29          76.46          136.4          15.07
    0.4645              -49.33          20.35          34.79          47.12         -14.08          12.39         -131.8         -18.16          76.46          136.2           15.1
    0.4795              -49.31          20.31          34.76          47.17         -14.06          12.38         -131.5         -18.01          76.45          136.0          15.12
    0.4945              -49.29          20.26          34.73          47.23         -14.04          12.38         -131.1         -17.84          76.45          135.7          15.16
    0.5095              -49.26           20.2          34.69          47.29         -14.02          12.37         -130.7         -17.64          76.44          135.4          15.19
    0.5245              -49.23          20.13          34.65          47.38          -14.0          12.36         -130.1          -17.4          76.43          135.0          15.24
    0.5395              -49.19          20.04          34.59          47.47         -13.97          12.35         -129.5         -17.12          76.43          134.5          15.29
    0.5544              -49.14          19.94          34.53          47.59         -13.93          12.34         -128.8         -16.78          76.42          133.9          15.36
    0.5694              -49.09          19.82          34.45          47.73         -13.89          12.33         -127.9         -16.38           76.4          133.3          15.43
    0.5844              -49.02          19.67          34.35           47.9         -13.83          12.31         -126.8         -15.88          76.39          132.4          15.53
    0.5994              -48.93          19.49          34.24          48.11         -13.77          12.29         -125.5         -15.26          76.37          131.4          15.64
    0.6144              -48.83          19.26          34.09          48.37         -13.69          12.27         -123.8          -14.5          76.35          130.2          15.79
    0.6294              -48.69          18.98           33.9           48.7         -13.58          12.24         -121.7         -13.53          76.32          128.6          15.97
    0.6444              -48.52          18.61          33.67          49.13         -13.45           12.2         -119.0          -12.3          76.28          126.5           16.2
    0.6593              -48.31          18.15          33.36          49.67         -13.28          12.14         -115.6         -10.73          76.24          123.9          16.49
    0.6743              -48.03          17.55          32.98          50.36         -13.06          12.08         -111.1         -8.717          76.18          120.6          16.87
    0.6893              -47.67          16.78          32.48          51.24         -12.79          11.99         -105.5         -6.141           76.1          116.3          17.36
    0.7043              -47.23          15.82          31.86          52.35         -12.44          11.89         -98.42         -2.903           76.0          110.9          17.97
    0.7193              -46.68          14.65           31.1          53.71         -12.02          11.76         -89.79          1.043          75.89          104.4          18.71
    0.7343              -46.05          13.29          30.22          55.28         -11.53          11.61         -79.78          5.617          75.75          96.81          19.57
    0.7493              -45.37          11.82          29.27          56.98         -10.99          11.45         -68.95          10.57          75.61           88.6           20.5
    0.7642              -44.68          10.35          28.32          58.68         -10.46          11.28         -58.11          15.52          75.46          80.39          21.43
    0.7792              -44.05          8.991          27.44          60.25         -9.971          11.13         -48.11           20.1          75.32          72.81           22.3
    0.7942              -43.51          7.819          26.68           61.6         -9.548          11.01         -39.47          24.04          75.21          66.27          23.04
    0.8092              -43.06          6.858          26.06          62.71           -9.2           10.9         -32.39          27.28          75.11           60.9          23.65
    0.8242               -42.7          6.093          25.56           63.6         -8.923          10.82         -26.76          29.86          75.03          56.63          24.13
    0.8392              -42.43          5.494          25.18          64.29         -8.707          10.75         -22.35          31.87          74.97          53.29          24.51
    0.8541              -42.21          5.027          24.88          64.83         -8.538           10.7         -18.91          33.44          74.93          50.68          24.81
    0.8691              -42.04          4.663          24.64          65.25         -8.407          10.66         -16.22          34.67          74.89          48.65          25.04
    0.8841              -41.91          4.376          24.45          65.58         -8.303          10.63         -14.11          35.64          74.86          47.05          25.22
    0.8991               -41.8          4.149          24.31          65.84         -8.221           10.6         -12.43           36.4          74.84          45.78          25.36
    0.9141              -41.72          3.966          24.19          66.06         -8.155          10.58         -11.09          37.02          74.82          44.76          25.48
    0.9291              -41.65          3.818          24.09          66.23         -8.101          10.56          -10.0          37.52          74.81          43.93          25.57
    0.9441              -41.59          3.697          24.01          66.37         -8.057          10.55         -9.108          37.92           74.8          43.26          25.65
     0.959              -41.54          3.597          23.95          66.48         -8.021          10.54         -8.371          38.26          74.79           42.7          25.71
